<svg xmlns="http://www.w3.org/2000/svg" width="456" height="275" viewBox="0 0 456 275">
    <g fill="none" fill-rule="nonzero">
        <path stroke="#BD4CFF" stroke-width="7.243" d="M416.509 107.81c19.557.882 35.112 17.155 35.112 37.16 0 20.413-16.482 37.005-36.785 37.005H305.24c-23.162 0-41.932-18.894-41.932-42.185 0-23.292 18.77-42.186 41.932-42.186 1.972 0 3.926.144 5.895.423 6.575-22.861 27.634-39.18 51.856-39.18 27.77 0 50.814 21.499 53.517 48.963z"/>
        <path fill="#FFF84C" stroke="#82FF4C" stroke-width="7.243" d="M142.963 92.092c17.672 1.004 31.621 16.316 31.621 35.047 0 19.23-14.962 34.919-33.469 34.919H42.48c-21.08 0-38.101-17.848-38.101-39.776 0-21.928 17.02-39.775 38.1-39.775 1.68 0 3.344.12 5.017.35 6.021-21.398 25.044-36.684 46.96-36.684 25.15 0 45.976 20.173 48.507 45.92z"/>
        <path fill="#FFF84C" stroke="#4CFFFE" stroke-width="7.243" d="M313.455 163.46h-2.744c-1.525-43.327-36.9-78.357-80.205-78.357-38.425 0-70.75 27.348-78.68 63.607-4.269-.922-8.843-1.537-13.722-1.537-33.851 0-61.297 27.655-61.297 61.763s27.446 61.764 61.297 61.764h175.351c29.277 0 53.064-23.968 53.064-53.467 0-29.806-23.787-53.774-53.064-53.774z"/>
        <path fill="#FFF84C" d="M221.264 0c18.652 0 33.775 15.099 33.775 33.715 0 18.607-15.125 33.704-33.775 33.704s-33.776-15.097-33.776-33.704C187.488 15.099 202.612 0 221.264 0zm-42.861 140.28c-4.284 6.596-10.236 10.63-17.53 10.63l-32.73.041c-9.313 0-15.183-7.394-15.121-16.459.061-9.014 5.965-16.407 15.12-16.407h20.828c2.078.029 3.673-.315 3.759-.463l18.16-34.017c8.331-12.801 22.225-16.117 49.586-15.83a3.773 3.773 0 0 1 3.737 3.809 3.774 3.774 0 0 1-3.817 3.73c-24.847-.261-28.3 40.297-28.3 43.996l-.001 28.515c-.089 4.277 27.56 27.793 82.946 70.546H153.68c-17.568.096-25.839-25.014-10.4-36.562l35.154-22.298c4.296-2.454 5.98-5.722 6.105-11.764v-16.34l-6.137 8.873zm80.381 7.39c.127 6.119 1.81 9.387 6.257 11.932l35.286 22.414c15.19 11.804 6.944 36.452-10.662 36.355h-90.719c-12.46 0-20.24-9.229-20.003-20.82.233-11.414 8.157-20.665 20.003-20.665v7.539c-7.41 0-12.295 5.704-12.45 13.28-.155 7.603 4.501 13.126 12.45 13.126-10.505-55.453-14.324-89.335-11.458-101.646 1.076-4.618.728-18.228 9.851-22.164 23.99-10.352 72.225-7.799 75.264-3.111l17.634 33.613c.141.247 1.74.59 3.877.562h21.069c9.155 0 15.059 7.393 15.122 16.407.06 9.065-5.81 16.46-15.127 16.46l-32.722-.043c-7.3 0-13.263-4.037-17.484-10.54l-6.187-8.953v16.253z"/>
        <path fill="#191917" d="M221.264 7.539c-14.48 0-26.221 11.722-26.221 26.176 0 14.444 11.743 26.165 26.22 26.165 14.479 0 26.222-11.721 26.222-26.165 0-14.454-11.742-26.176-26.221-26.176zm0-7.539c18.652 0 33.775 15.099 33.775 33.715 0 18.607-15.125 33.704-33.775 33.704s-33.776-15.097-33.776-33.704C187.488 15.099 202.612 0 221.264 0zm-42.861 140.28c-4.284 6.596-10.236 10.63-17.53 10.63l-32.73.041c-9.313 0-15.183-7.394-15.122-16.459.062-9.014 5.966-16.407 15.122-16.407h20.827c2.078.029 3.673-.315 3.759-.463l18.16-34.017c8.331-12.801 22.225-16.117 49.586-15.83a3.773 3.773 0 0 1 3.737 3.809 3.774 3.774 0 0 1-3.817 3.73c-24.847-.261-36.786 2.588-43.003 12.115l-18.043 33.824c-2.103 3.7-5.531 4.439-10.431 4.37h-20.775c-4.565 0-7.531 3.715-7.567 8.92-.036 5.21 2.87 8.87 7.562 8.87l32.73-.042c4.413 0 8.185-2.557 11.256-7.282l13.084-18.92c2.105-3.044 6.887-1.558 6.887 2.14l-.001 28.516c-.178 8.613-3.14 14.363-9.756 18.139l-34.763 22.041c-9.404 7.043-4.187 22.883 6.085 22.826h19.936a3.773 3.773 0 0 1 3.778 3.77 3.774 3.774 0 0 1-3.778 3.769h-19.915c-17.568.097-25.839-25.013-10.4-36.56l35.154-22.299c4.296-2.454 5.98-5.722 6.105-11.764v-16.34l-6.137 8.873zm80.381 7.39c.127 6.119 1.81 9.387 6.257 11.932l35.286 22.414c15.19 11.804 6.944 36.452-10.662 36.354h-90.719c-12.46 0-20.24-9.228-20.003-20.819.233-11.414 8.157-20.665 20.003-20.665h54.005a3.773 3.773 0 0 1 3.778 3.77 3.773 3.773 0 0 1-3.778 3.769h-54.005c-7.41 0-12.295 5.704-12.45 13.28-.155 7.603 4.501 13.126 12.45 13.126h90.74c10.356.058 15.545-15.45 6.293-22.66l-34.842-22.117c-6.766-3.866-9.727-9.616-9.906-18.307V119.31c0-3.7 4.782-5.185 6.887-2.14l13.133 19.01c3.007 4.63 6.79 7.19 11.21 7.19l32.722.042c4.696 0 7.602-3.66 7.566-8.868-.035-5.206-3.002-8.92-7.566-8.92l-21.017-.001c-4.947.069-8.375-.67-10.555-4.481l-17.523-33.433c-6.277-9.658-19.844-12.666-45.613-12.396a3.774 3.774 0 0 1-3.817-3.73 3.773 3.773 0 0 1 3.737-3.808c28.374-.297 43.766 3.115 52.208 16.135l17.634 33.613c.141.247 1.74.59 3.877.562h21.069c9.155 0 15.059 7.393 15.121 16.407.062 9.065-5.809 16.46-15.126 16.46l-32.722-.043c-7.3 0-13.263-4.037-17.484-10.54l-6.187-8.953v16.253z"/>
    </g>
</svg>
