<svg xmlns="http://www.w3.org/2000/svg" width="31" height="30" viewBox="0 0 31 30"><path d="M15.5,0a15.365,15.365,0,0,0-4.9,29.973c.776.142,1.058-.333,1.058-.741,0-.365-.013-1.332-.021-2.615-4.311.929-5.221-2.062-5.221-2.062A4.082,4.082,0,0,0,4.695,22.3c-1.407-.954.107-.935.107-.935a3.252,3.252,0,0,1,2.374,1.585,3.315,3.315,0,0,0,4.511,1.277,3.278,3.278,0,0,1,.984-2.055c-3.442-.388-7.06-1.708-7.06-7.6a5.919,5.919,0,0,1,1.6-4.127,5.486,5.486,0,0,1,.152-4.07s1.3-.414,4.262,1.577a14.784,14.784,0,0,1,7.761,0c2.959-1.99,4.258-1.577,4.258-1.577a5.487,5.487,0,0,1,.155,4.07,5.908,5.908,0,0,1,1.593,4.127c0,5.908-3.624,7.209-7.077,7.589a3.658,3.658,0,0,1,1.051,2.848c0,2.056-.019,3.715-.019,4.219,0,.412.28.89,1.066.74A15.367,15.367,0,0,0,15.5,0" fill="#131415"/></svg>