<svg xmlns="http://www.w3.org/2000/svg" width="18" height="18" viewBox="0 0 18 18">
    <g fill="none" fill-rule="evenodd">
        <path d="M-7-7h32v32H-7z"/>
        <path fill="#FFF" d="M.273 9.221c0 3.953 2.5 7.308 5.968 8.49.437.083.596-.193.596-.43 0-.213-.008-.775-.012-1.522-2.427.54-2.94-1.2-2.94-1.2-.397-1.034-.969-1.309-.969-1.309-.792-.555.06-.544.06-.544.876.064 1.337.923 1.337.923.779 1.367 2.043.972 2.54.743.08-.578.305-.972.554-1.196-1.938-.226-3.975-.994-3.975-4.423 0-.977.34-1.776.898-2.401-.09-.227-.389-1.136.086-2.368 0 0 .733-.241 2.4.917A8.168 8.168 0 0 1 9 4.6a8.181 8.181 0 0 1 2.186.3c1.665-1.157 2.397-.916 2.397-.916.476 1.232.176 2.141.087 2.368.56.625.897 1.424.897 2.401 0 3.438-2.04 4.194-3.985 4.416.314.276.592.822.592 1.657 0 1.196-.01 2.161-.01 2.455 0 .24.157.517.6.43 3.465-1.186 5.963-4.537 5.963-8.49C17.727 4.28 13.82.273 9 .273 4.181.273.273 4.279.273 9.22z" opacity=".3"/>
    </g>
</svg>
