<svg xmlns="http://www.w3.org/2000/svg" width="24" height="16" viewBox="0 0 24 16"><path d="M17.492,15.166a.837.837,0,0,1,.84-.834c1.662,0,2.2-.756,2.2-3.1V9.743a2.5,2.5,0,0,1,1.12-1.728,2.48,2.48,0,0,1-1.12-1.754V4.779c0-2.35-.534-3.1-2.2-3.1a.834.834,0,1,1,0-1.669c3.876,0,3.876,3.468,3.876,4.773V6.26a4.9,4.9,0,0,0,1.345,1l0,.006a.831.831,0,0,1,.022,1.458,4.49,4.49,0,0,0-1.386,1.115l.014,1.385c0,1.3,0,4.774-3.876,4.774A.837.837,0,0,1,17.492,15.166Zm-15.7-3.946V9.736A6.675,6.675,0,0,0,.422,8.72a.831.831,0,0,1,.02-1.458A3.988,3.988,0,0,0,1.8,6.188L1.793,4.772c0-1.3,0-4.772,3.876-4.772a.834.834,0,1,1,0,1.669c-1.663,0-2.2.754-2.2,3.1V6.254A2.481,2.481,0,0,1,2.354,8.007,2.5,2.5,0,0,1,3.473,9.736v1.483c0,2.35.533,3.1,2.2,3.1a.834.834,0,1,1,0,1.669C1.793,15.993,1.793,12.524,1.793,11.219Z" transform="translate(0)" fill="#82ff4c"/></svg>