<!DOCTYPE svg PUBLIC "-//W3C//DTD SVG 20010904//EN" "http://www.w3.org/TR/2001/REC-SVG-20010904/DTD/svg10.dtd">
<svg version="1.0" xmlns="http://www.w3.org/2000/svg" width="88px" height="61px" viewBox="0 0 1830 1400" preserveAspectRatio="xMidYMid meet">
<g id="layer101" fill="#82FF4C" stroke="none">
 <path d="M315 1266 c-171 -43 -262 -141 -273 -295 -13 -186 96 -304 329 -355 26 -6 27 -8 31 -93 5 -100 25 -149 83 -208 59 -59 128 -88 220 -93 71 -3 86 -1 129 22 l49 25 63 -59 c195 -182 475 -199 665 -41 l32 27 -186 275 -186 275 200 264 c109 145 199 265 199 267 0 2 -294 3 -652 2 -488 0 -666 -4 -703 -13z m1228 -58 c-84 -110 -323 -428 -333 -443 -11 -19 6 -47 170 -289 140 -207 179 -271 168 -278 -68 -46 -169 -78 -246 -78 -47 0 -138 23 -194 50 -59 27 -133 90 -184 156 l-43 55 -27 -36 c-36 -47 -72 -65 -132 -65 -99 0 -193 53 -234 133 -24 49 -34 144 -20 205 5 23 9 42 8 42 0 0 -41 9 -91 19 -162 33 -241 87 -270 183 -51 171 40 310 228 348 23 4 305 8 626 9 465 1 582 -2 574 -11z"/>
 <path d="M1662 1153 c-30 -40 -38 -59 -29 -64 19 -10 147 -32 153 -26 7 7 -64 147 -74 147 -5 0 -27 -26 -50 -57z"/>
 <path d="M1550 997 c-19 -28 -36 -55 -38 -58 -3 -8 127 -23 134 -16 5 4 -53 127 -59 127 -1 0 -18 -24 -37 -53z"/>
 <path d="M1442 852 c-37 -53 -34 -56 46 -67 l54 -7 -17 32 c-9 18 -24 45 -34 60 l-17 28 -32 -46z"/>
 <path d="M1437 701 l-28 -6 31 -49 c35 -54 29 -56 79 27 l23 37 -39 -1 c-21 -1 -51 -4 -66 -8z"/>
 <path d="M1548 561 l-47 -6 36 -58 c40 -64 35 -65 87 26 l28 47 -29 -2 c-15 0 -49 -4 -75 -7z"/>
 <path d="M1667 406 l-68 -11 43 -62 c24 -35 45 -63 48 -63 5 0 79 119 88 142 5 10 -25 9 -111 -6z"/>
 </g>

</svg>