<svg xmlns="http://www.w3.org/2000/svg" width="369" height="193" viewBox="0 0 369 193">
    <g fill="none" fill-rule="evenodd">
        <path fill="#FFF" d="M366.713 20.933a66.162 66.162 0 0 0-12.397-9.501 69.54 69.54 0 0 0-10.424-5.023 66.923 66.923 0 0 0-11.987-3.204C323.48 1.722 314.21 2.03 304.916 4.31c-1.133.312-2.374.584-3.44.932-1.173.39-2.35.78-3.535 1.175-1.172.414-2.416.74-3.546 1.23l-3.424 1.457c-2.329.88-4.527 2.196-6.804 3.366-1.16.557-2.217 1.303-3.307 2-1.085.709-2.19 1.4-3.274 2.13-8.462 6.158-15.942 14.359-21.67 24.157-1.52 2.39-2.792 4.968-4.164 7.506-1.235 2.618-2.563 5.212-3.684 7.941-2.38 5.387-4.459 11.023-6.51 16.765-4.074 11.5-7.79 23.551-12.442 35.664-4.66 12.077-10.37 24.313-18.632 35.275-1.062 1.343-2.038 2.758-3.181 4.049l-3.423 3.886c-1.18 1.265-2.459 2.444-3.689 3.673-1.206 1.256-2.558 2.36-3.898 3.48-2.603 2.34-5.53 4.282-8.385 6.337l-.37.245-.277.162-.551.327-1.105.653-2.211 1.308c-1.41.914-3.099 1.661-4.74 2.437-1.644.77-3.278 1.598-4.984 2.13l-2.538.903c-.852.283-1.68.649-2.566.829-1.75.433-3.503.867-5.258 1.303-1.783.293-3.58.532-5.376.796-7.22.767-14.607.258-21.712-1.474-14.229-3.466-27.236-11.717-36.787-22.92-9.6-11.168-15.926-25.215-17.719-39.945-.917-7.362-.51-14.857.86-22.11 1.39-7.25 3.75-14.329 7.164-20.82.408-.821.797-1.653 1.224-2.463l1.413-2.353c.962-1.552 1.837-3.165 2.876-4.662l3.196-4.43.8-1.106.199-.276.28-.345.429-.505 1.717-2.018c1.06-1.35 2.51-2.682 3.819-4.011l1.003-.996 1.064-.893 2.132-1.781c.685-.622 1.496-1.095 2.245-1.64l2.296-1.576 2.434-1.37c.807-.464 1.617-.919 2.487-1.267l2.56-1.127c.858-.364 1.767-.606 2.647-.912 1.753-.655 3.61-.962 5.427-1.38.916-.178 1.853-.24 2.779-.363l1.391-.16c.464-.045.934-.028 1.4-.044l2.799-.038 2.788.228c3.691.437 7.358 1.266 10.759 2.735l1.29.512 1.236.624c.816.431 1.658.814 2.45 1.285 1.558.985 3.138 1.933 4.55 3.112 1.5 1.068 2.771 2.399 4.118 3.633 1.197 1.38 2.504 2.67 3.523 4.184 2.234 2.884 3.916 6.14 5.281 9.476l.92 2.544c.306.848.474 1.736.715 2.601.516 1.727.71 3.513.998 5.277.158.88.137 1.776.212 2.664.03.888.15 1.777.104 2.662l-.098 2.654c-.022.44-.02.885-.064 1.322l-.171 1.31c-.823 7-3.156 13.65-6.364 19.642l-.593 1.13-.296.564c-.074.131-.045.102-.202.367l-.165.258-2.63 4.137-1.559 2.059-1.568 2.042c-.537.66-1.121 1.255-1.68 1.884l-1.69 1.857c-.551.631-1.201 1.158-1.797 1.74-9.672 9.227-21.638 15.099-33.644 18.434-6.019 1.692-12.083 2.815-18.092 3.499-6.012.674-11.97.83-17.808.674a126.442 126.442 0 0 1-17.129-1.618c-5.56-.897-10.975-2.074-16.158-3.667-5.185-1.572-10.172-3.439-14.874-5.665-4.68-2.27-9.091-4.868-13.035-7.918-1.999-1.498-3.801-3.166-5.555-4.893-.814-.87-1.64-1.69-2.43-2.584l-2.319-2.722a74.102 74.102 0 0 1-7.505-11.377 81.867 81.867 0 0 1-5.125-11.674 88.613 88.613 0 0 1-4.68-32.14c.098-3.14.443-6.094.81-8.861.448-2.758.939-5.333 1.582-7.683 1.227-4.713 2.765-8.581 4.286-11.567a41.282 41.282 0 0 1 4.06-6.47c.53-.681.982-1.159 1.26-1.497l.433-.501s-.58.68-1.632 2.045a41.116 41.116 0 0 0-3.851 6.555c-2.84 6-5.653 15.584-5.872 28.01a87.53 87.53 0 0 0 2.032 20.364 87.185 87.185 0 0 0 3.25 11.144 80.011 80.011 0 0 0 5.247 11.282c2.11 3.728 4.599 7.4 7.52 10.877l2.257 2.538c.778.845 1.644 1.67 2.47 2.514 1.663 1.562 3.432 3.137 5.369 4.518 3.84 2.815 8.102 5.284 12.661 7.415 4.58 2.094 9.45 3.844 14.515 5.305 5.062 1.484 10.358 2.56 15.79 3.363 5.43.808 11.018 1.29 16.705 1.355 5.684.074 11.472-.154 17.288-.885 5.81-.74 11.65-1.904 17.406-3.606 11.495-3.354 22.737-9.114 31.618-17.823.546-.55 1.15-1.046 1.652-1.64l1.545-1.748c.507-.587 1.054-1.156 1.532-1.758l1.372-1.84 1.387-1.834 1.299-2.073 1.3-2.08.164-.26.085-.177.272-.526.541-1.053c2.944-5.585 5.013-11.68 5.71-17.973l.15-1.176c.036-.395.029-.79.045-1.185l.073-2.372c.041-.791-.08-1.578-.112-2.368-.074-.787-.05-1.586-.2-2.364-.276-1.557-.443-3.14-.918-4.657-.22-.76-.363-1.546-.642-2.289l-.825-2.233c-1.227-2.92-2.71-5.773-4.693-8.282-.894-1.328-2.06-2.437-3.106-3.646-1.196-1.063-2.304-2.23-3.625-3.148-1.237-1.029-2.63-1.835-3.988-2.69-.692-.408-1.432-.731-2.144-1.103l-1.078-.54-1.126-.434c-2.965-1.266-6.152-1.948-9.35-2.31l-2.415-.195-2.427.043c-.404.015-.81-.004-1.213.037l-1.206.147c-.805.111-1.617.158-2.415.317-1.581.379-3.195.63-4.73 1.22-.77.272-1.564.475-2.317.8l-2.252 1c-.765.301-1.482.711-2.197 1.127l-2.159 1.216-2.048 1.42c-.67.49-1.395.903-2.013 1.473l-1.92 1.615-.962.805-.87.874c-1.156 1.193-2.346 2.226-3.474 3.66l-2.143 2.53c-.131.16-.063.064-.137.171l-.188.262-.751 1.048-3.011 4.191c-.978 1.413-1.788 2.931-2.693 4.392l-1.327 2.211c-.397.762-.755 1.542-1.136 2.31-3.192 6.088-5.355 12.677-6.63 19.396-1.255 6.723-1.614 13.643-.76 20.446 1.628 13.609 7.456 26.658 16.35 37.053 8.843 10.433 20.893 18.074 33.938 21.28a58.77 58.77 0 0 0 19.887 1.41c6.612-.579 13.121-2.612 19.01-5.319 1.474-.683 2.949-1.288 4.434-2.232l2.22-1.294 1.11-.645.553-.323.277-.161c.118-.065-.013.003.161-.112 2.7-1.926 5.481-3.73 7.947-5.926 1.272-1.046 2.557-2.076 3.702-3.258 1.168-1.155 2.386-2.257 3.51-3.447a7375.48 7375.48 0 0 0 3.269-3.66c1.093-1.214 2.029-2.56 3.05-3.83 7.953-10.366 13.528-22.19 18.301-33.995 4.735-11.855 8.606-23.83 12.868-35.379 2.148-5.768 4.329-11.453 6.834-16.927 1.18-2.763 2.579-5.419 3.882-8.082 1.446-2.599 2.788-5.223 4.393-7.683 6.05-10.04 13.988-18.547 22.91-24.846 1.141-.75 2.301-1.455 3.442-2.178 1.146-.712 2.26-1.47 3.47-2.034 2.39-1.192 4.67-2.513 7.148-3.42l3.622-1.477c1.2-.494 2.404-.792 3.594-1.193l3.554-1.115c1.289-.386 2.457-.607 3.678-.914 9.688-2.157 19.297-2.26 27.956-.542a68.844 68.844 0 0 1 12.265 3.564 71.278 71.278 0 0 1 10.572 5.38 67.553 67.553 0 0 1 13.211 10.763"/>
        <path fill="#191917" d="M160.983 155.774a6.63 6.63 0 0 0 3.146-8.832l-22.98-48.414a6.63 6.63 0 0 0-8.832-3.147l-76.501 36.313a6.63 6.63 0 0 0-3.147 8.832l22.98 48.414a6.63 6.63 0 0 0 8.832 3.146l76.502-36.312z"/>
        <path fill="#FFF" d="M119.31 136.158c.813-1.743 1.6-3.462 2.39-5.146 1.322-2.78 2.515-5.498 3.665-8.075a343.155 343.155 0 0 0 3.19-7.299 336.296 336.296 0 0 0 4.525-11.028c.985-2.51 1.536-4.031 1.604-4.223-.107.16-.995 1.537-2.387 3.836a352.199 352.199 0 0 0-6.023 10.295c-1.21 2.14-2.528 4.466-3.864 6.96-1.346 2.473-2.788 5.078-4.193 7.811-.936 1.791-1.918 3.615-2.88 5.478-.402.778-.803 1.555-1.2 2.343-.103.195-.192.396-.294.591l-.547 1.092-.277.547-.248.435c-.322.582-.729 1.118-1.15 1.623-.895 1-1.993 1.802-3.196 2.386-1.208.573-2.53.906-3.87.968-.322-.006-.688.021-.974-.015-.31-.036-.558-.016-.996-.114l-.517-.085-.59-.135-1.186-.257a15.179 15.179 0 0 0-.655-.142c-.866-.2-1.732-.377-2.588-.558-2.048-.422-4.07-.819-6.044-1.24-3.013-.625-5.943-1.154-8.714-1.686a423.78 423.78 0 0 0-7.836-1.406c-4.85-.841-8.916-1.443-11.774-1.848-1.42-.207-2.554-.33-3.323-.429-.675-.082-1.07-.14-1.159-.147.088.031.468.158 1.11.38.737.236 1.802.624 3.176 1.047a340.04 340.04 0 0 0 11.416 3.462c2.369.686 4.933 1.426 7.662 2.149 2.718.728 5.583 1.533 8.573 2.266 1.805.452 3.633.93 5.493 1.393l-13.99 38.71 16.306-38.134c.457.113.924.221 1.391.33l1.187.281.594.146.684.127c.35.092.912.143 1.425.194.518.06.973.038 1.467.048a14.55 14.55 0 0 0 5.622-1.322 14.374 14.374 0 0 0 4.58-3.52c.613-.743 1.183-1.527 1.636-2.378l.338-.626.264-.553.536-1.086c.21-.43.423-.862.62-1.297l39.854 11.477-38.832-13.626" opacity=".5"/>
        <path fill="#191917" d="M7.313 46.258l37.592 18.603a3.285 3.285 0 0 0 4.4-1.488l11.771-23.79a3.283 3.283 0 0 0-1.486-4.399L21.998 16.581a3.284 3.284 0 0 0-4.399 1.487L5.826 41.858a3.285 3.285 0 0 0 1.487 4.4"/>
        <path fill="#FFF" d="M39.746 42.64c.926-.22 1.835-.442 2.733-.651 1.487-.34 2.91-.71 4.265-1.053 1.357-.336 2.637-.68 3.816-1 2.357-.629 4.31-1.207 5.677-1.623a78.215 78.215 0 0 0 2.133-.673 76.92 76.92 0 0 0-2.224.25c-1.415.172-3.44.44-5.85.816-1.204.186-2.512.388-3.891.633-1.376.235-2.831.474-4.325.767-.984.186-1.994.362-3.013.56-.426.083-.851.166-1.279.253-.107.02-.213.048-.32.068l-.593.121-.298.06-.244.038a5.342 5.342 0 0 1-.984.051 5.126 5.126 0 0 1-1.909-.511 5.001 5.001 0 0 1-1.564-1.208c-.096-.126-.22-.26-.293-.382-.081-.132-.165-.222-.261-.424l-.126-.226-.128-.27-.264-.541c-.047-.103-.097-.2-.146-.299-.187-.397-.385-.787-.577-1.176-.464-.926-.93-1.835-1.373-2.732-.681-1.362-1.374-2.664-2.018-3.905-.643-1.24-1.273-2.4-1.857-3.477a189.57 189.57 0 0 0-2.896-5.146c-.354-.614-.655-1.093-.852-1.423-.174-.287-.274-.459-.298-.495l.193.547c.134.359.31.891.567 1.557a167.08 167.08 0 0 0 2.157 5.5c.46 1.132.96 2.356 1.516 3.639.55 1.28 1.116 2.64 1.75 4.029.377.84.753 1.697 1.143 2.562L8.769 43.315l19.83-5.362c.097.214.198.428.3.643l.254.547.126.277.16.305c.072.163.224.397.362.613.136.219.283.39.431.586a7.213 7.213 0 0 0 2.24 1.78 7.116 7.116 0 0 0 2.774.7c.477.01.956-.009 1.425-.094l.348-.06.296-.068.587-.124c.232-.05.465-.1.695-.158l7.766 19.018-6.617-19.278" opacity=".5"/>
    </g>
</svg>
