<svg xmlns="http://www.w3.org/2000/svg" width="16" height="16" viewBox="0 0 16 16">
    <g fill="none" fill-rule="evenodd">
        <path d="M-8-8h32v32H-8z"/>
        <path fill="#FFF" d="M1.094 5.391H3.93v9.88H1.094v-9.88zM2.44 4.155h-.02C1.393 4.155.727 3.4.727 2.444c0-.976.685-1.717 1.732-1.717 1.046 0 1.69.739 1.71 1.714 0 .956-.664 1.714-1.73 1.714zm12.834 11.118h-3.215v-5.114c0-1.339-.503-2.251-1.609-2.251-.845 0-1.316.615-1.535 1.21-.082.213-.069.51-.069.808v5.347H5.66s.041-9.058 0-9.882h3.185v1.551c.188-.678 1.206-1.646 2.83-1.646 2.015 0 3.598 1.422 3.598 4.482v5.495z" opacity=".3"/>
    </g>
</svg>
