<svg xmlns="http://www.w3.org/2000/svg" width="118" height="41.169" viewBox="0 0 118 41.169"><g transform="translate(-82 -10)"><path d="M4.672,28H0V7.406H4.672v2.962h.221A6.1,6.1,0,0,1,6.629,7.973a4.712,4.712,0,0,1,3.093-.946,6,6,0,0,1,2.479.5,5.042,5.042,0,0,1,1.925,1.543,7.8,7.8,0,0,1,1.263,2.648,14.084,14.084,0,0,1,.458,3.813,14.08,14.08,0,0,1-.458,3.812A7.8,7.8,0,0,1,14.126,22,5.042,5.042,0,0,1,12.2,23.54a6,6,0,0,1-2.479.5,4.768,4.768,0,0,1-3.093-.93A5.943,5.943,0,0,1,4.893,20.7H4.672V28ZM7.7,10.652a3.774,3.774,0,0,0-2.13.6,2.117,2.117,0,0,0-.9,1.891v4.791a2.117,2.117,0,0,0,.9,1.891,3.774,3.774,0,0,0,2.13.6,3.09,3.09,0,0,0,2.431-.961,3.894,3.894,0,0,0,.852-2.663V14.276a3.893,3.893,0,0,0-.852-2.663A3.09,3.09,0,0,0,7.7,10.652Zm99.122,13.394a5.54,5.54,0,0,1-3.8-1.276,4.557,4.557,0,0,1-1.436-3.577,4.234,4.234,0,0,1,1.862-3.782,10.009,10.009,0,0,1,5.461-1.229h2.621v-.82a3.157,3.157,0,0,0-.679-2.19,3.005,3.005,0,0,0-2.289-.741,4.527,4.527,0,0,0-2.4.567,5.6,5.6,0,0,0-1.579,1.481l-2.557-2.269A6.157,6.157,0,0,1,104.6,7.925a9.889,9.889,0,0,1,4.5-.9,8.09,8.09,0,0,1,5.224,1.529,5.624,5.624,0,0,1,1.878,4.616v7.123H118v3.372h-2.683a3.537,3.537,0,0,1-2.336-.741,3.12,3.12,0,0,1-1.041-2.128h-.158a4,4,0,0,1-1.751,2.426A5.958,5.958,0,0,1,106.825,24.045Zm2.21-7.343c-1.906,0-2.873.647-2.873,1.922v.63a1.46,1.46,0,0,0,.662,1.292,3.165,3.165,0,0,0,1.769.441,3.554,3.554,0,0,0,2.083-.6,2,2,0,0,0,.852-1.733V16.7ZM55.922,24.045a5.541,5.541,0,0,1-3.8-1.276,4.557,4.557,0,0,1-1.436-3.577,4.233,4.233,0,0,1,1.863-3.782,10.005,10.005,0,0,1,5.461-1.229h2.62v-.82a3.153,3.153,0,0,0-.679-2.19,3.005,3.005,0,0,0-2.289-.741,4.527,4.527,0,0,0-2.4.567,5.6,5.6,0,0,0-1.579,1.481l-2.557-2.269A6.158,6.158,0,0,1,53.7,7.925a9.894,9.894,0,0,1,4.5-.9,8.09,8.09,0,0,1,5.224,1.529A5.624,5.624,0,0,1,65.3,13.172v7.123h1.8v3.372H64.414a3.537,3.537,0,0,1-2.336-.741A3.123,3.123,0,0,1,61.036,20.8h-.158a4.01,4.01,0,0,1-1.752,2.426A5.956,5.956,0,0,1,55.922,24.045ZM58.132,16.7c-1.906,0-2.873.647-2.873,1.922v.63a1.461,1.461,0,0,0,.663,1.292,3.158,3.158,0,0,0,1.768.441,3.55,3.55,0,0,0,2.083-.6,2,2,0,0,0,.852-1.733V16.7ZM89.7,23.668H85.028V2.317H89.7v8.051h.19a6.934,6.934,0,0,1,.694-1.292,4.784,4.784,0,0,1,.995-1.056A4.687,4.687,0,0,1,92.935,7.3a5.372,5.372,0,0,1,1.752-.268,5.721,5.721,0,0,1,2.146.394A4.4,4.4,0,0,1,98.507,8.6,5.721,5.721,0,0,1,99.6,10.526a7.967,7.967,0,0,1,.4,2.615V23.666H95.319v-9.9c0-2.091-.924-3.152-2.747-3.152a4.03,4.03,0,0,0-1.057.142,2.83,2.83,0,0,0-.932.441,2.205,2.205,0,0,0-.647.741,2.182,2.182,0,0,0-.237,1.04V23.667Zm-16.968,0H68.06V7.406h4.672v2.962h.19a6.933,6.933,0,0,1,.694-1.292A4.783,4.783,0,0,1,74.61,8.02,4.687,4.687,0,0,1,75.967,7.3a5.371,5.371,0,0,1,1.752-.268,5.721,5.721,0,0,1,2.147.394A4.4,4.4,0,0,1,81.539,8.6a5.721,5.721,0,0,1,1.089,1.922,7.967,7.967,0,0,1,.4,2.615V23.666H78.351v-9.9c0-2.091-.924-3.152-2.747-3.152a4.03,4.03,0,0,0-1.058.142,2.83,2.83,0,0,0-.932.441,2.206,2.206,0,0,0-.647.741,2.182,2.182,0,0,0-.237,1.04V23.667Zm-24.528,0h-13.8V20.043h3.757V11.03H34.409V7.406h8.428v4.6h.221a9.23,9.23,0,0,1,.616-1.717,5.6,5.6,0,0,1,1.01-1.481,4.483,4.483,0,0,1,1.5-1.024,5.3,5.3,0,0,1,2.083-.378h1.547v4.286H46.341a3.286,3.286,0,0,0-2.62,1.024,3.714,3.714,0,0,0-.884,2.5v4.822H48.2v3.623Zm-15.484,0H18.073V20.043H23.25V11.03H18.073V7.406h9.849V20.043h4.8v3.623ZM25.585,5.326a2.987,2.987,0,0,1-2.193-.646,2.19,2.19,0,0,1-.616-1.56V2.206A2.175,2.175,0,0,1,23.392.63,3.036,3.036,0,0,1,25.585,0a3.037,3.037,0,0,1,2.194.63A2.175,2.175,0,0,1,28.4,2.206V3.12a2.19,2.19,0,0,1-.616,1.56A2.989,2.989,0,0,1,25.585,5.326Z" transform="translate(82 10)" fill="#fff84c"/><path d="M42.445,9.568a4.222,4.222,0,0,1-2.828-1.021,3.5,3.5,0,0,1-1.189-2.788V.169h2.093V5.5a2.54,2.54,0,0,0,.5,1.651,1.759,1.759,0,0,0,1.437.611,2.016,2.016,0,0,0,1.6-.611,2.557,2.557,0,0,0,.533-1.729V.169h2.093V5.655a3.822,3.822,0,0,1-1.1,2.821A4.279,4.279,0,0,1,42.445,9.568Zm-13.507,0A4.908,4.908,0,0,1,25.4,8.2a4.61,4.61,0,0,1-1.41-3.444,4.525,4.525,0,0,1,1.424-3.4,5.249,5.249,0,0,1,7.046,0,4.527,4.527,0,0,1,1.423,3.4,4.621,4.621,0,0,1-1.4,3.444A4.886,4.886,0,0,1,28.938,9.568Zm0-7.748a2.665,2.665,0,0,0-2,.845,2.929,2.929,0,0,0-.806,2.093A3,3,0,0,0,26.936,6.9a2.67,2.67,0,0,0,2.015.851A2.622,2.622,0,0,0,30.934,6.9a3,3,0,0,0,.8-2.126,2.959,2.959,0,0,0-.8-2.106A2.648,2.648,0,0,0,28.938,1.82ZM4.953,9.568A5.085,5.085,0,0,1,1.4,8.287,4.4,4.4,0,0,1,0,4.888,4.714,4.714,0,0,1,1.4,1.346,4.836,4.836,0,0,1,4.875,0,4.559,4.559,0,0,1,7.748.91,3.393,3.393,0,0,1,9.061,3.38H7.046a1.823,1.823,0,0,0-.722-1.131A2.4,2.4,0,0,0,4.862,1.82a2.594,2.594,0,0,0-1.937.825A2.992,2.992,0,0,0,2.132,4.8a2.972,2.972,0,0,0,.78,2.171,2.694,2.694,0,0,0,2,.793,2.389,2.389,0,0,0,1.527-.5,1.963,1.963,0,0,0,.722-1.4h2.08A3.6,3.6,0,0,1,7.9,8.58,4.6,4.6,0,0,1,4.953,9.568ZM54.639,9.4H51.363V.169h3.159A5.743,5.743,0,0,1,58.26,1.313a4.161,4.161,0,0,1,1.4,3.406,4.533,4.533,0,0,1-1.313,3.425A5.171,5.171,0,0,1,54.639,9.4ZM53.5,1.963V7.605h.949a3.2,3.2,0,0,0,2.308-.741,2.853,2.853,0,0,0,.761-2.132,2.648,2.648,0,0,0-.779-2.074,3.207,3.207,0,0,0-2.2-.7ZM19.929,9.4H13.663V.169H15.8V7.605h4.134V9.4Z" transform="translate(140.008 41.601)" fill="#fff"/></g></svg>