<svg xmlns="http://www.w3.org/2000/svg" width="414.571" height="316.609" viewBox="0 0 414.571 316.609"><g transform="translate(-857.2 -896.731)"><g transform="translate(855 898)"><g transform="translate(0 183)"><g transform="matrix(0.985, -0.174, 0.174, 0.985, 0.643, 36.386)"><path d="M22.358,32.209l0,0c1.012-1.247,2.119-4.139,2.869-6.346l-.3-.025c-1.113-.091-1.992-.163-2.57-.163a3.505,3.505,0,0,1-.9-.147,9.849,9.849,0,0,1-6.408,2.4,11.789,11.789,0,0,1-3.516-.568c1.557-.96,2.864-3.633,3.687-5.707-1.21-1-2.255-1.945-2.919-2.567a7.074,7.074,0,0,0-2.6,1.461c-3.069,2.816-7.115,2.9-9.288,2.942L0,23.5c1.262-1.893,4.22-6.322,4.5-8.888C4.725,12.521,1.161,4.05,1.125,3.965h.011A25.51,25.51,0,0,1,9.872,8.532a15.159,15.159,0,0,0,4.351,2.711c.607-.294,1.271-.623,1.974-.972,1.491-.74,3.181-1.578,4.949-2.384A19.229,19.229,0,0,0,19.432.014l.025,0c.054,0,.2-.011.418-.011A18.58,18.58,0,0,1,31.224,4.528c.5-.068.927-.11,1.308-.128.119-.006.241-.009.362-.009a13.58,13.58,0,0,1,6.1,1.793,36.569,36.569,0,0,1,5.872,3.945,60.585,60.585,0,0,1,6.168,5.738l.487,1.784-3.752-2.11-1.651,1.7-2.628-2.155-3.172,3.176,1.193,1.193,2.094-2.1,2.643,2.168,1.826-1.883,2.628,1.48A22.505,22.505,0,0,1,48.254,21.6,17.6,17.6,0,0,1,40.6,25.31a36.782,36.782,0,0,1-8.575.886c-.26,0-.525,0-.791-.006a10.416,10.416,0,0,1-4.076,4.36,15.687,15.687,0,0,1-4.8,1.659ZM37.8,9.588a2.389,2.389,0,1,0,2.388,2.389A2.392,2.392,0,0,0,37.8,9.588Z" transform="translate(78.288 0.021)" fill="#f4ed49"/><path d="M7.9,33.179v0c.261-2.261.871-7.555-.047-9.957C7.1,21.258.071,15.342,0,15.282c0,0,.007,0,.017-.005a27.366,27.366,0,0,1,4.958-.454,20.875,20.875,0,0,1,4.893.537,16.45,16.45,0,0,0,3.854.493,12.11,12.11,0,0,0,1.252-.063c.411-.543.857-1.145,1.329-1.783.987-1.333,2.105-2.843,3.306-4.359a19.258,19.258,0,0,0-5.115-6.228h0l.005,0a16.183,16.183,0,0,1,7.961-1.849,22.1,22.1,0,0,1,4.591.5c.394-.278.755-.51,1.1-.71A12.884,12.884,0,0,1,34.533,0c6.939,0,15.23,3.1,15.313,3.133L51.091,4.5l-4.3-.17L46.1,6.593l-3.319-.72L41.4,10.148,43,10.667l.909-2.822,3.342.725.767-2.508,3.013.119A22.37,22.37,0,0,1,49.989,9.5a17.877,17.877,0,0,1-5.447,7.058,38.732,38.732,0,0,1-7.611,4.778,10.425,10.425,0,0,1-1.641,5.739,15.655,15.655,0,0,1-3.518,3.665c.335-1.571,0-4.651-.336-6.958l-.249.1c-1.046.432-1.873.773-2.4,1.041a3.461,3.461,0,0,1-.874.291,10.009,10.009,0,0,1-7.993,6.147c.947-1.562.893-4.537.68-6.758-1.506-.331-2.881-.7-3.768-.958a7.093,7.093,0,0,0-1.65,2.485c-1.448,3.9-5.011,5.82-6.925,6.85l-.359.194ZM36.3,3.3a2.39,2.39,0,1,0,2.127,1.3A2.364,2.364,0,0,0,36.3,3.3Z" transform="translate(104.178 55.939)" fill="#f4ed49"/><path d="M24.95,31.665v0c.831-1.38,1.526-4.4,1.961-6.683L26.59,25c-1.106.063-1.98.113-2.549.193a2.648,2.648,0,0,1-.375.025,4.358,4.358,0,0,1-.543-.038,9.815,9.815,0,0,1-7.5,3.364,12.734,12.734,0,0,1-2.067-.176c1.406-1.166,2.33-3.995,2.857-6.163-1.323-.809-2.5-1.609-3.246-2.138a7.071,7.071,0,0,0-2.373,1.806c-2.647,3.213-6.64,3.857-8.786,4.2l-.407.066C2.587,24.1,4.9,19.3,4.821,16.717,4.755,14.616.048,6.722,0,6.643H.011A25.493,25.493,0,0,1,9.3,9.95a15.158,15.158,0,0,0,4.685,2.081c.554-.371,1.157-.784,1.8-1.22,1.381-.944,2.946-2.014,4.594-3.065A19.211,19.211,0,0,0,17.582.188s0,0,.011,0A11.349,11.349,0,0,1,19.775,0,19.547,19.547,0,0,1,29.887,3.02c.472-.134.89-.235,1.277-.309a8.464,8.464,0,0,1,1.567-.14,16.727,16.727,0,0,1,6.089,1.4,40.332,40.332,0,0,1,5.948,3.069A60.554,60.554,0,0,1,51.076,11.5l.728,1.7L47.8,11.63l-1.4,1.914-2.9-1.768L40.8,15.36l1.349,1.016,1.781-2.367,2.919,1.78,1.548-2.117,2.809,1.1a22.679,22.679,0,0,1-2.076,2.794,17.885,17.885,0,0,1-7.462,4.884,38.748,38.748,0,0,1-8.756,2.02,10.429,10.429,0,0,1-3.433,4.884,15.69,15.69,0,0,1-4.522,2.309ZM37.441,7.093a2.411,2.411,0,0,0-.336.024,2.39,2.39,0,0,0-2.035,2.7,2.388,2.388,0,0,0,2.7,2.033A2.387,2.387,0,0,0,39.8,9.15,2.4,2.4,0,0,0,37.441,7.093Z" transform="translate(34.084 51.129)" fill="#b84af8"/><path d="M13.631,42.755v0c-.541-2.21-1.807-7.384-3.505-9.32C8.739,31.854.087,28.751,0,28.72l.008-.007a25.517,25.517,0,0,1,9.27-3.35,15.172,15.172,0,0,0,4.938-1.373c.194-.645.4-1.354.617-2.1.464-1.6.99-3.414,1.593-5.264a19.243,19.243,0,0,0-6.961-4.06s0,0,0-.008a13.113,13.113,0,0,1,2.7-2.38,20.322,20.322,0,0,1,8.6-3.251c.278-.4.537-.745.789-1.049a12.522,12.522,0,0,1,5.165-3.357A34.178,34.178,0,0,1,33.456.769,60.447,60.447,0,0,1,42.462,0h.048l1.639.845L40.061,2.183,40.2,4.549l-3.361.479.193,4.486,1.687-.07-.129-2.961L41.974,6,41.82,3.38l2.867-.937a22.444,22.444,0,0,1,.173,3.478,17.889,17.889,0,0,1-2.654,8.514,38.7,38.7,0,0,1-5.474,7.126,10.425,10.425,0,0,1,.456,5.952,15.705,15.705,0,0,1-2.023,4.66c-.234-1.589-1.616-4.362-2.734-6.408L32.174,26c-.8.744-1.439,1.331-1.826,1.751a3.415,3.415,0,0,1-.717.576,10.014,10.014,0,0,1-5.36,8.543c.277-1.435-.3-3.646-1.711-6.572-1.533.215-2.948.343-3.865.412a7.081,7.081,0,0,0-.684,2.9c0,4.167-2.675,7.2-4.112,8.834l-.267.3ZM30.7,4.725a2.391,2.391,0,1,0,1.615.63A2.394,2.394,0,0,0,30.7,4.725Z" transform="translate(157.61 82.47)" fill="#f4ed49"/><path d="M24.6,31.733v0c.9-1.444,1.67-4.79,2.052-6.656l-.268.012c-1.132.049-2.026.089-2.606.162a2.673,2.673,0,0,1-.334.02,4.245,4.245,0,0,1-.586-.045,9.81,9.81,0,0,1-7.388,3.263,12.619,12.619,0,0,1-2.223-.206c1.14-.918,2.13-2.978,2.942-6.124-1.319-.834-2.477-1.647-3.216-2.182a7.076,7.076,0,0,0-2.4,1.775c-2.69,3.176-6.69,3.766-8.84,4.082l-.41.061c1.015-2.036,3.395-6.8,3.349-9.381C4.644,14.411.046,6.454,0,6.374H.011a25.516,25.516,0,0,1,9.24,3.433,15.166,15.166,0,0,0,4.654,2.145c.566-.368,1.183-.778,1.837-1.212,1.387-.921,2.959-1.964,4.613-2.986a19.235,19.235,0,0,0-2.688-7.6s.005,0,.012,0A11.057,11.057,0,0,1,19.653,0,19.422,19.422,0,0,1,29.932,3.16c.474-.129.894-.224,1.283-.292a8.363,8.363,0,0,1,1.437-.119,16.36,16.36,0,0,1,6.093,1.434,39.925,39.925,0,0,1,5.95,3.155A60.478,60.478,0,0,1,51,11.928l.706,1.709-3.988-1.625L46.3,13.906l-2.876-1.8-2.75,3.548L42,16.683l1.814-2.343,2.894,1.818,1.576-2.094L51.083,15.2a22.718,22.718,0,0,1-2.115,2.764,17.885,17.885,0,0,1-7.527,4.781,38.738,38.738,0,0,1-8.782,1.9,10.429,10.429,0,0,1-3.5,4.836,15.7,15.7,0,0,1-4.553,2.248Zm12.791-24.4a2.42,2.42,0,0,0-.3.019,2.388,2.388,0,0,0,.3,4.757,2.422,2.422,0,0,0,.3-.019,2.387,2.387,0,0,0,2.068-2.668A2.391,2.391,0,0,0,37.395,7.335Z" transform="translate(0.249 7.556)" fill="#82ff4c"/></g><g transform="translate(419.589 53.76) rotate(-160)"><path d="M-22.358,32.209l0,0c-1.012-1.247-2.119-4.139-2.869-6.346l.3-.025c1.113-.091,1.992-.163,2.57-.163a3.505,3.505,0,0,0,.9-.147,9.849,9.849,0,0,0,6.408,2.4,11.789,11.789,0,0,0,3.516-.568c-1.557-.96-2.864-3.633-3.687-5.707,1.21-1,2.255-1.945,2.919-2.567a7.074,7.074,0,0,1,2.6,1.461c3.069,2.816,7.115,2.9,9.288,2.942L0,23.5c-1.262-1.893-4.22-6.322-4.5-8.888C-4.725,12.521-1.161,4.05-1.125,3.965h-.011A25.51,25.51,0,0,0-9.872,8.532a15.159,15.159,0,0,1-4.351,2.711c-.607-.294-1.271-.623-1.974-.972-1.491-.74-3.181-1.578-4.949-2.384A19.229,19.229,0,0,1-19.432.014l-.025,0c-.054,0-.2-.011-.418-.011A18.58,18.58,0,0,0-31.224,4.528c-.5-.068-.927-.11-1.308-.128-.119-.006-.241-.009-.362-.009a13.58,13.58,0,0,0-6.1,1.793,36.569,36.569,0,0,0-5.872,3.945,60.585,60.585,0,0,0-6.168,5.738l-.487,1.784,3.752-2.11,1.651,1.7,2.628-2.155,3.172,3.176-1.193,1.193-2.094-2.1-2.643,2.168-1.826-1.883-2.628,1.48A22.505,22.505,0,0,0-48.254,21.6,17.6,17.6,0,0,0-40.6,25.31a36.782,36.782,0,0,0,8.575.886c.26,0,.525,0,.791-.006a10.416,10.416,0,0,0,4.076,4.36,15.687,15.687,0,0,0,4.8,1.659ZM-37.8,9.588a2.392,2.392,0,0,1,2.389,2.389A2.392,2.392,0,0,1-37.8,14.365a2.391,2.391,0,0,1-2.388-2.389A2.391,2.391,0,0,1-37.8,9.588Z" transform="translate(78.288 -0.021) rotate(-180)" fill="#f4ed49"/><path d="M-7.9,33.179v0c-.261-2.261-.871-7.555.047-9.957C-7.1,21.258-.071,15.342,0,15.282c0,0-.007,0-.017-.005a27.366,27.366,0,0,0-4.958-.454,20.875,20.875,0,0,0-4.893.537,16.45,16.45,0,0,1-3.854.493,12.11,12.11,0,0,1-1.252-.063c-.411-.543-.857-1.145-1.329-1.783-.987-1.333-2.105-2.843-3.306-4.359a19.258,19.258,0,0,1,5.115-6.228h0l-.005,0a16.183,16.183,0,0,0-7.961-1.849,22.1,22.1,0,0,0-4.591.5c-.394-.278-.755-.51-1.1-.71A12.884,12.884,0,0,0-34.533,0c-6.939,0-15.23,3.1-15.313,3.133L-51.091,4.5l4.3-.17.695,2.267,3.319-.72,1.38,4.275L-43,10.667l-.909-2.822-3.342.725-.767-2.508-3.013.119A22.37,22.37,0,0,0-49.989,9.5a17.877,17.877,0,0,0,5.447,7.058,38.732,38.732,0,0,0,7.611,4.778,10.425,10.425,0,0,0,1.641,5.739,15.655,15.655,0,0,0,3.518,3.665c-.335-1.571,0-4.651.336-6.958l.249.1c1.046.432,1.873.773,2.4,1.041a3.461,3.461,0,0,0,.874.291,10.009,10.009,0,0,0,7.993,6.147c-.947-1.562-.893-4.537-.68-6.758,1.506-.331,2.881-.7,3.768-.958a7.093,7.093,0,0,1,1.65,2.485c1.448,3.9,5.011,5.82,6.925,6.85l.359.194ZM-36.3,3.3a2.364,2.364,0,0,1,1.087.263,2.375,2.375,0,0,1,1.186,1.393,2.37,2.37,0,0,1-.147,1.823,2.379,2.379,0,0,1-2.128,1.3,2.366,2.366,0,0,1-1.088-.263,2.372,2.372,0,0,1-1.185-1.393A2.373,2.373,0,0,1-38.424,4.6,2.38,2.38,0,0,1-36.3,3.3Z" transform="translate(104.178 -55.939) rotate(-180)" fill="#b84af8"/><path d="M-24.95,31.665v0c-.831-1.38-1.526-4.4-1.961-6.683l.322.018c1.106.063,1.98.113,2.549.193a2.648,2.648,0,0,0,.375.025,4.358,4.358,0,0,0,.543-.038,9.815,9.815,0,0,0,7.5,3.364,12.734,12.734,0,0,0,2.067-.176c-1.406-1.166-2.33-3.995-2.857-6.163,1.323-.809,2.5-1.609,3.246-2.138a7.071,7.071,0,0,1,2.373,1.806c2.647,3.213,6.64,3.857,8.786,4.2l.407.066C-2.587,24.1-4.9,19.3-4.821,16.717c.067-2.1,4.774-10,4.821-10.075H-.011A25.493,25.493,0,0,0-9.3,9.95a15.158,15.158,0,0,1-4.685,2.081c-.554-.371-1.157-.784-1.8-1.22-1.381-.944-2.946-2.014-4.594-3.065A19.211,19.211,0,0,1-17.582.188s0,0-.011,0A11.349,11.349,0,0,0-19.775,0,19.547,19.547,0,0,0-29.887,3.02c-.472-.134-.89-.235-1.277-.309a8.464,8.464,0,0,0-1.567-.14,16.727,16.727,0,0,0-6.089,1.4,40.332,40.332,0,0,0-5.948,3.069A60.554,60.554,0,0,0-51.076,11.5l-.728,1.7L-47.8,11.63l1.4,1.914,2.9-1.768,2.7,3.584-1.349,1.016-1.781-2.367-2.919,1.78-1.548-2.117-2.809,1.1a22.679,22.679,0,0,0,2.076,2.794,17.885,17.885,0,0,0,7.462,4.884,38.748,38.748,0,0,0,8.756,2.02,10.429,10.429,0,0,0,3.433,4.884,15.69,15.69,0,0,0,4.522,2.309ZM-37.441,7.093a2.411,2.411,0,0,1,.336.024,2.373,2.373,0,0,1,1.576.927,2.374,2.374,0,0,1,.459,1.77,2.4,2.4,0,0,1-2.364,2.057,2.416,2.416,0,0,1-.335-.024,2.368,2.368,0,0,1-1.574-.927A2.374,2.374,0,0,1-39.8,9.15,2.4,2.4,0,0,1-37.441,7.093Z" transform="translate(34.084 -51.129) rotate(-180)" fill="#4cfffe"/><path d="M-24.6,31.733v0c-.9-1.444-1.67-4.79-2.052-6.656l.268.012c1.132.049,2.026.089,2.606.162a2.673,2.673,0,0,0,.334.02,4.245,4.245,0,0,0,.586-.045,9.81,9.81,0,0,0,7.388,3.263,12.619,12.619,0,0,0,2.223-.206c-1.14-.918-2.13-2.978-2.942-6.124,1.319-.834,2.477-1.647,3.216-2.182a7.076,7.076,0,0,1,2.4,1.775c2.69,3.176,6.69,3.766,8.84,4.082l.41.061c-1.015-2.036-3.395-6.8-3.349-9.381C-4.644,14.411-.046,6.454,0,6.374H-.011a25.516,25.516,0,0,0-9.24,3.433,15.166,15.166,0,0,1-4.654,2.145c-.566-.368-1.183-.778-1.837-1.212-1.387-.921-2.959-1.964-4.613-2.986a19.235,19.235,0,0,1,2.688-7.6s-.005,0-.012,0A11.057,11.057,0,0,0-19.653,0,19.422,19.422,0,0,0-29.932,3.16c-.474-.129-.894-.224-1.283-.292a8.363,8.363,0,0,0-1.437-.119,16.36,16.36,0,0,0-6.093,1.434,39.925,39.925,0,0,0-5.95,3.155A60.478,60.478,0,0,0-51,11.928l-.706,1.709,3.988-1.625,1.424,1.895,2.876-1.8,2.75,3.548L-42,16.683l-1.814-2.343-2.894,1.818-1.576-2.094L-51.083,15.2a22.718,22.718,0,0,0,2.115,2.764,17.885,17.885,0,0,0,7.527,4.781,38.738,38.738,0,0,0,8.782,1.9,10.429,10.429,0,0,0,3.5,4.836,15.7,15.7,0,0,0,4.553,2.248Zm-12.791-24.4a2.42,2.42,0,0,1,.3.019A2.372,2.372,0,0,1-35.5,8.26a2.373,2.373,0,0,1,.483,1.763,2.392,2.392,0,0,1-2.37,2.089,2.422,2.422,0,0,1-.3-.019,2.365,2.365,0,0,1-1.586-.9,2.377,2.377,0,0,1-.482-1.764A2.391,2.391,0,0,1-37.395,7.335Z" transform="translate(0.249 -7.556) rotate(-180)" fill="#f4ed49"/></g></g><g transform="translate(121)"><path d="M0,1.216H43.9" transform="translate(100.88 190.105)" fill="none" stroke="#fff84c" stroke-linecap="round" stroke-linejoin="round" stroke-miterlimit="10" stroke-width="4"/><path d="M0,1.216H43.9" transform="translate(35.219 190.105)" fill="none" stroke="#fff84c" stroke-linecap="round" stroke-linejoin="round" stroke-miterlimit="10" stroke-width="4"/><circle cx="10.88" cy="10.88" r="10.88" transform="translate(79.12 180.441)" fill="none" stroke="#fff84c" stroke-linecap="round" stroke-linejoin="round" stroke-miterlimit="10" stroke-width="4"/><path d="M1.216,0V13.247" transform="translate(88.784 167.194)" fill="none" stroke="#fff84c" stroke-linecap="round" stroke-linejoin="round" stroke-miterlimit="10" stroke-width="4"/><path d="M179.99,22.78a22.782,22.782,0,0,1-22.782,22.787H22.782A22.782,22.782,0,0,1,0,22.78H0A22.779,22.779,0,0,1,22.782,0H157.208A22.781,22.781,0,0,1,179.99,22.78Z" transform="translate(0.005 121.625)" fill="none" stroke="#fff84c" stroke-linecap="round" stroke-linejoin="round" stroke-miterlimit="10" stroke-width="4"/><path d="M55.562,6.261A6.258,6.258,0,0,1,49.3,12.522H6.261A6.258,6.258,0,0,1,0,6.261H0A6.263,6.263,0,0,1,6.261,0H49.3a6.263,6.263,0,0,1,6.261,6.261Z" transform="translate(16.555 138.144)" fill="none" stroke="#fff84c" stroke-linecap="round" stroke-linejoin="round" stroke-miterlimit="10" stroke-width="4"/><path d="M14.609,7.3A7.3,7.3,0,1,1,7.3,0,7.307,7.307,0,0,1,14.609,7.3Z" transform="translate(151.395 137.105)" fill="none" stroke="#fff84c" stroke-linecap="round" stroke-linejoin="round" stroke-miterlimit="10" stroke-width="4"/><path d="M179.99,22.785a22.779,22.779,0,0,1-22.782,22.78H22.782A22.779,22.779,0,0,1,0,22.785H0A22.783,22.783,0,0,1,22.782,0H157.208A22.783,22.783,0,0,1,179.99,22.785Z" transform="translate(0.005 61.179)" fill="none" stroke="#fff84c" stroke-linecap="round" stroke-linejoin="round" stroke-miterlimit="10" stroke-width="4"/><path d="M55.562,6.259A6.263,6.263,0,0,1,49.3,12.52H6.261A6.263,6.263,0,0,1,0,6.259H0A6.258,6.258,0,0,1,6.261,0H49.3a6.258,6.258,0,0,1,6.261,6.259Z" transform="translate(16.555 77.705)" fill="none" stroke="#fff84c" stroke-linecap="round" stroke-linejoin="round" stroke-miterlimit="10" stroke-width="4"/><circle cx="7.305" cy="7.305" r="7.305" transform="translate(151.395 76.659)" fill="none" stroke="#fff84c" stroke-linecap="round" stroke-linejoin="round" stroke-miterlimit="10" stroke-width="4"/><path d="M33.577,0V10.357a3.35,3.35,0,0,1-3.354,3.354H3.354A3.353,3.353,0,0,1,0,10.357V0" transform="translate(73.211 107.913)" fill="none" stroke="#fff84c" stroke-linecap="round" stroke-linejoin="round" stroke-miterlimit="10" stroke-width="4"/><path d="M179.99,22.785a22.779,22.779,0,0,1-22.782,22.78H22.782A22.779,22.779,0,0,1,0,22.785H0A22.783,22.783,0,0,1,22.782,0H157.208A22.783,22.783,0,0,1,179.99,22.785Z" transform="translate(0.005 0.731)" fill="none" stroke="#fff84c" stroke-linecap="round" stroke-linejoin="round" stroke-miterlimit="10" stroke-width="4"/><path d="M55.562,6.259A6.263,6.263,0,0,1,49.3,12.52H6.261A6.263,6.263,0,0,1,0,6.259H0A6.258,6.258,0,0,1,6.261,0H49.3a6.258,6.258,0,0,1,6.261,6.259Z" transform="translate(16.555 17.256)" fill="none" stroke="#fff84c" stroke-linecap="round" stroke-linejoin="round" stroke-miterlimit="10" stroke-width="4"/><circle cx="7.305" cy="7.305" r="7.305" transform="translate(151.395 16.211)" fill="none" stroke="#fff84c" stroke-linecap="round" stroke-linejoin="round" stroke-miterlimit="10" stroke-width="4"/><path d="M33.577,0V10.357a3.35,3.35,0,0,1-3.354,3.354H3.354A3.353,3.353,0,0,1,0,10.357V0" transform="translate(73.211 47.467)" fill="none" stroke="#fff84c" stroke-linecap="round" stroke-linejoin="round" stroke-miterlimit="10" stroke-width="4"/></g></g></g></svg>